Coordinates
version=1
nRows=12
nColumns=42
inDegrees=yes

Units are S.I. units (second, meters, Newtons, ...)
If the header above contains a line with 'inDegrees', this indicates whether rotational values are in degrees (yes) or radians (no).

endheader
time	pelvis_tilt	pelvis_list	pelvis_rotation	pelvis_tx	pelvis_ty	pelvis_tz	hip_flexion_r	hip_adduction_r	hip_rotation_r	knee_angle_r	knee_angle_r_beta	ankle_angle_r	subtalar_angle_r	mtp_angle_r	hip_flexion_l	hip_adduction_l	hip_rotation_l	knee_angle_l	knee_angle_l_beta	ankle_angle_l	subtalar_angle_l	mtp_angle_l	lumbar_extension	lumbar_bending	lumbar_rotation	sh_tx_r	sh_ty_r	sh_tz_r	sh_plane_elev_r	sh_elev_r	sh_axial_rot_r	elbow_flex_r	pro_sup_r	sh_tx_l	sh_ty_l	sh_tz_l	sh_plane_elev_l	sh_elev_l	sh_axial_rot_l	elbow_flex_l	pro_sup_l
      6.42372880	     -1.39431197	     -0.07485326	      0.79261693	      0.33758104	      0.93560404	     -0.04685508	     -2.98557140	     -4.79606662	     -0.48512386	      0.37245145	      0.00650050	      3.26152503	     -4.15288342	     -7.49999987	     -3.43368947	     -0.44192536	     -7.97697849	      0.82678832	      0.01443018	      6.90448850	     -8.18072005	     -7.49999987	     -1.69461050	     -0.02348169	     -4.84577553	      0.01065413	     -0.01742243	     -0.00505220	      0.90902932	      3.95196520	      2.79850931	     20.94593243	     81.17619991	     -0.00230076	     -0.01702563	     -0.00432181	     10.60466078	      5.50628768	     -2.99835771	     28.16523929	     66.94332858
      6.44067800	     -1.22415117	     -0.02482841	      0.70645389	      0.33769541	      0.93536934	     -0.04643117	     -3.07778504	     -4.92657954	     -0.50565847	      0.37476303	      0.00654085	      3.31874588	     -3.96034201	     -7.49999987	     -3.57947417	     -0.31622369	     -7.99465645	      0.78974854	      0.01378371	      6.86908621	     -8.21808788	     -7.49999987	     -2.08206306	     -0.01542424	     -4.93120193	      0.00937640	     -0.01740099	     -0.00498269	      1.23084125	      4.08213410	      2.90615085	     20.74892396	     80.60901995	     -0.00293098	     -0.01709412	     -0.00432264	     11.15627617	      5.63389838	     -2.93144496	     28.56069344	     66.79038515
      6.45762710	     -1.07223258	     -0.00291645	      0.61779009	      0.33723270	      0.93597610	     -0.04681165	     -3.15962470	     -5.04079755	     -0.45484893	      0.39215035	      0.00684431	      3.35920531	     -3.87164154	     -7.49999987	     -3.69942603	     -0.20748464	     -7.98457929	      0.77435138	      0.01351498	      6.86450054	     -8.33350881	     -7.49999987	     -2.39677192	      0.07226058	     -5.12618048	      0.00892734	     -0.01738079	     -0.00487393	      1.34258457	      4.22423809	      3.00395535	     20.74708276	     79.93963643	     -0.00347155	     -0.01720739	     -0.00430678	     11.39760435	      5.68675202	     -3.04413850	     28.73503922	     66.55373262
      6.47457630	     -1.01045422	      0.01441120	      0.47878108	      0.33745781	      0.93878360	     -0.04611664	     -3.13431884	     -5.11664622	     -0.46815554	      0.40636536	      0.00709241	      3.35197860	     -3.70205056	     -7.49999987	     -3.76454092	     -0.15267713	     -8.11128105	      0.75930196	      0.01325232	      6.90793334	     -8.13749661	     -7.49999987	     -2.54557184	      0.12354826	     -5.22692291	      0.00872336	     -0.01739279	     -0.00476931	      1.75378739	      4.35484536	      3.14368208	     20.45980671	     78.88734506	     -0.00435717	     -0.01728651	     -0.00431068	     12.36732511	      5.86538948	     -3.32487694	     28.72037262	     66.11704006
      6.49152540	     -0.81288710	     -0.01935529	      0.33046411	      0.33708098	      0.93922691	     -0.04665078	     -3.27854873	     -5.14292562	     -0.26243388	      0.41828653	      0.00730048	      3.33181969	     -3.68162593	     -7.49999987	     -3.98782246	     -0.14446810	     -8.05437618	      0.74602752	      0.01302064	      6.84896366	     -8.34860791	     -7.49999987	     -2.90641625	      0.22130965	     -5.24486277	      0.00803203	     -0.01738054	     -0.00471910	      1.70673284	      4.47990926	      3.17258091	     20.47289348	     78.47769361	     -0.00437787	     -0.01728605	     -0.00434880	     12.44420317	      5.90690809	     -3.43172262	     28.79342678	     65.94538206
      6.50847460	     -0.88803768	     -0.02274807	      0.25913319	      0.33290199	      0.93559518	     -0.05049004	     -3.11163038	     -5.24468509	     -0.16319984	      0.45030288	      0.00785927	      3.27190292	     -3.68498883	     -7.49999987	     -3.84739160	     -0.06573693	     -7.81000043	      0.76860870	      0.01341475	      6.88276205	     -8.66618834	     -7.49999987	     -2.85462831	      0.33212493	     -5.53866861	      0.00902271	     -0.01741894	     -0.00464332	      1.99975073	      4.68533387	      3.59045539	     20.36207985	     76.14578083	     -0.00476091	     -0.01736173	     -0.00424772	     13.35125380	      5.96708760	     -3.98673153	     28.67968520	     64.82385154
      6.52542370	     -0.76049494	     -0.00740534	      0.10685843	      0.33257674	      0.93623054	     -0.05067123	     -3.13909515	     -5.36686742	     -0.03922359	      0.44805736	      0.00782008	      3.30243217	     -3.45652388	     -7.49999987	     -3.93680044	      0.05025348	     -7.93455185	      0.72386716	      0.01263387	      6.84102014	     -8.62779478	     -7.49999987	     -3.30927824	      0.39223852	     -5.35503398	      0.00734680	     -0.01746200	     -0.00468872	      2.60908092	      5.03869002	      3.78647988	     21.10185309	     75.38700085	     -0.00484699	     -0.01743127	     -0.00430030	     14.39158594	      6.21585570	     -3.68627858	     29.12078489	     64.55823982
      6.54237290	     -0.75087395	     -0.00507965	      0.12904438	      0.33279009	      0.93587341	     -0.05038926	     -3.08203764	     -5.45768649	      0.04055694	      0.47490447	      0.00828865	      3.21829307	     -3.67415186	     -7.49999987	     -3.85306953	      0.13608349	     -7.52311064	      0.78690659	      0.01373411	      6.80381291	     -9.31097239	     -7.49999987	     -3.21351819	      0.45186156	     -5.68288415	      0.00920364	     -0.01745362	     -0.00461769	      1.55288024	      4.93732032	      3.33788122	     20.81941819	     75.85619258	     -0.00456653	     -0.01746373	     -0.00421262	     13.67967747	      6.02325618	     -4.11695711	     28.88927707	     64.49378475
      6.55932200	     -0.71714536	     -0.00982393	      0.09159719	      0.33268322	      0.93631659	     -0.05056448	     -3.06071121	     -5.50858364	      0.06621812	      0.47952615	      0.00836931	      3.22351370	     -3.66239153	     -7.49999987	     -3.82395653	      0.19136192	     -7.51483070	      0.79655112	      0.01390244	      6.81758459	     -9.32466737	     -7.49999987	     -3.24317275	      0.47185433	     -5.68995375	      0.00969190	     -0.01750903	     -0.00443550	      1.54316558	      4.97873090	      3.33718160	     20.82923278	     75.86129838	     -0.00411327	     -0.01749000	     -0.00420397	     13.67917502	      6.02607716	     -4.11101352	     28.88644962	     64.49492951
      6.57627120	     -0.73337262	      0.01624157	      0.01050447	      0.33280433	      0.93597158	     -0.05025542	     -2.99947152	     -5.58170950	      0.19212142	      0.47296428	      0.00825478	      3.21978616	     -3.54641580	     -7.49999987	     -3.73858652	      0.26772123	     -7.51741643	      0.87366930	      0.01524841	      6.92374214	     -9.43349993	     -7.49999987	     -3.37135374	      0.45426240	     -5.46581334	      0.00796200	     -0.01755428	     -0.00451018	      1.70145366	      5.17381006	      3.35477144	     21.41048947	     75.75203336	     -0.00418713	     -0.01755890	     -0.00410437	     13.96179009	      6.07274282	     -3.93071626	     29.11399114	     64.47286436
      6.59322030	     -0.38503565	      0.00467222	     -0.03372866	      0.33252450	      0.93360572	     -0.05072398	     -3.36915674	     -5.59492064	      0.10174994	      0.44857365	      0.00782909	      3.32226027	     -3.14598705	     -7.49999987	     -4.09867330	      0.30411725	     -7.46893466	      0.86629219	      0.01511965	      6.95138300	     -9.52844737	     -7.49999987	     -3.90469106	      0.47420463	     -5.38747920	      0.00706235	     -0.01744007	     -0.00459081	      2.50999745	      5.44389104	      3.76272433	     21.98413633	     74.59413130	     -0.00425335	     -0.01745085	     -0.00419807	     15.28843019	      6.42707896	     -3.48167212	     29.03247190	     64.07349743
      6.61016950	     -0.48099184	      0.03010171	     -0.17124472	      0.33270351	      0.93632428	     -0.05076573	     -3.21741843	     -5.64331807	      0.33406455	      0.47430437	      0.00827817	      3.41837431	     -3.29571341	     -7.49999987	     -3.95981186	      0.35799318	     -7.38076922	      0.91074882	      0.01589557	      6.67942380	    -10.05863824	     -7.49999987	     -3.66520853	      0.33193227	     -5.51880907	      0.00816640	     -0.01745924	     -0.00449785	      2.04980345	      5.16768574	      2.93237441	     21.60387541	     74.00952726	     -0.00502046	     -0.01744219	     -0.00418769	     15.75902361	      6.45902873	     -4.28102645	     28.60780751	     63.57966755
